<svg width="720" height="560" viewBox="0 0 720 560" fill="none" xmlns="http://www.w3.org/2000/svg">
  <defs>
    <linearGradient id="bg" x1="0" y1="0" x2="1" y2="1">
      <stop offset="0%" stop-color="#FCE4EC" />
      <stop offset="100%" stop-color="#FFF8F9" />
    </linearGradient>
    <linearGradient id="petal" x1="0" y1="0" x2="1" y2="1">
      <stop offset="0%" stop-color="#C2185B" />
      <stop offset="100%" stop-color="#880E4F" />
    </linearGradient>
  </defs>
  <rect width="720" height="560" rx="40" fill="url(#bg)" />
  <circle cx="170" cy="190" r="120" fill="#FFE3EF" />
  <circle cx="540" cy="140" r="90" fill="#FFD1E0" />
  <circle cx="520" cy="380" r="130" fill="#FFF0F4" />
  <g fill="url(#petal)" opacity="0.9">
    <path d="M350 180c40 0 70 30 70 70s-30 70-70 70-70-30-70-70 30-70 70-70Z" />
    <path d="M260 240c-30-30-30-80 0-110 30-30 80-30 110 0-40 20-70 60-110 110Z" />
    <path d="M440 240c30-30 30-80 0-110-30-30-80-30-110 0 40 20 70 60 110 110Z" />
    <path d="M350 330c0 40-30 70-70 70s-70-30-70-70c40 10 80 10 140 0Z" />
    <path d="M350 330c0 40 30 70 70 70s70-30 70-70c-40 10-80 10-140 0Z" />
  </g>
  <rect x="90" y="400" width="220" height="110" rx="28" fill="#FFFFFF" fill-opacity="0.7" />
  <rect x="420" y="60" width="220" height="110" rx="28" fill="#FFFFFF" fill-opacity="0.7" />
</svg>
